# xmcd CD database file
#
# Track frame offsets:
#	150
#	15913
#	34983
#	52405
#	67465
#	83091
#	100901
#	117428
#	137541
#	162406
#	179986
#	198086
#	214366
#
# Disc length: 3057 seconds
#
# Revision: 0
# Processed by: cddbd v1.5.1PL2 Copyright (c) Steve Scherf et al.
# Submitted via: Feurio! 1.68 - http://www.feurio.com
#
DISCID=c70bef0d
DTITLE=LeAnn Rimes - Twisted Angel (edit)
DYEAR=1900
DGENRE=Country
TTITLE0=Life Goes On
TTITLE1=Wound Up
TTITLE2=The Safest Place
TTITLE3=Trouble With Goodbye
TTITLE4=Damn
TTITLE5=Suddenly
TTITLE6=Tic Toc
TTITLE7=Sign Of Life
TTITLE8=Review My Kisses
TTITLE9=No Way Out
TTITLE10=Love Is An Army
TTITLE11=You Made Me Find Myselfl
TTITLE12=Twisted Angel
EXTD=
EXTT0=
EXTT1=
EXTT2=
EXTT3=
EXTT4=
EXTT5=
EXTT6=
EXTT7=
EXTT8=
EXTT9=
EXTT10=
EXTT11=
EXTT12=
PLAYORDER=
